<?xml version="1.0" encoding="iso-8859-1"?>
<!-- Uploaded to: SVG Repo, www.svgrepo.com, Generator: SVG Repo Mixer Tools -->
<!DOCTYPE svg PUBLIC "-//W3C//DTD SVG 1.1//EN" "http://www.w3.org/Graphics/SVG/1.1/DTD/svg11.dtd">
<svg fill="#000000" version="1.1" id="Capa_1" xmlns="http://www.w3.org/2000/svg" xmlns:xlink="http://www.w3.org/1999/xlink" 
	 width="800px" height="800px" viewBox="0 0 31.87 31.869"
	 xml:space="preserve">
<g>
	<g>
		<circle cx="15.929" cy="4.348" r="4.348"/>
		<path d="M20.521,16.155l-0.052-1.836h3.148l-0.715-2.423l-0.548-1.897l-2.36-0.323V8.75L15.68,9.536L11.364,8.75v0.98L9.512,9.967
			l-1.827,3.79h0.012L7.429,14.32h3.718v1.836H2.223v3.56h2.221v12.153h22.981V19.715h2.221v-3.56H20.521z M18.995,11.896h-0.627
			v2.423h0.627v0.508l-3.314,0.604l-3.315-0.604v-0.508h0.597v-2.423h-0.597V9.949l3.315,0.603l3.314-0.603V11.896z"/>
	</g>
</g>
</svg>