<?xml version="1.0" ?><!-- Uploaded to: SVG Repo, www.svgrepo.com, Generator: SVG Repo Mixer Tools -->
<svg fill="#000000" width="800px" height="800px" viewBox="0 0 64 64" data-name="Layer 1" id="Layer_1" xmlns="http://www.w3.org/2000/svg"><path d="M35.6,47.06a5.65,5.65,0,0,1-4-1.68L18.62,32.44a5.71,5.71,0,0,1,0-8.09l10-10a12.19,12.19,0,0,1,17.22,0l3.81,3.81a12.17,12.17,0,0,1,0,17.22l-10,10A5.66,5.66,0,0,1,35.6,47.06Zm1.62-32.27a8.16,8.16,0,0,0-5.78,2.39l-10,10a1.72,1.72,0,0,0,0,2.43l13,13a1.76,1.76,0,0,0,2.43,0l10-10a8.18,8.18,0,0,0,0-11.56h0L43,17.18A8.16,8.16,0,0,0,37.22,14.79Z"/><path d="M23,53.21a5.22,5.22,0,0,1-3.71-1.54l-7-7a5.25,5.25,0,0,1,0-7.43l7-7a2,2,0,0,1,2.83,0L33.7,41.87a2,2,0,0,1,0,2.83l-7,7A5.24,5.24,0,0,1,23,53.21ZM20.72,34.54,15.16,40.1a1.24,1.24,0,0,0-.37.89,1.22,1.22,0,0,0,.37.88l7,7a1.27,1.27,0,0,0,1.77,0l5.56-5.56Z"/><path d="M41.1,22.9a2.42,2.42,0,0,0-3.34,0h0a2.36,2.36,0,1,0,3.34,0Z"/></svg>